<svg xmlns="http://www.w3.org/2000/svg" viewBox="0 0 1920 1080" width="1920" height="1080" fill="none">
  <rect width="1920" height="1080" fill="#ffffff"/>
  <defs>
    <marker id="arrow" markerWidth="8" markerHeight="8" refX="7" refY="4" orient="auto">
      <path d="M0,0 L8,4 L0,8 Z" fill="#334155"/>
    </marker>
  </defs>
  <rect x="40" y="40" width="1840" height="1000" rx="8" fill="#ffffff" stroke="#e2e8f0" stroke-width="2"/>
  <rect x="580" y="52" width="760" height="56" rx="6" fill="#3B82F6"/>
  <text x="960" y="88" text-anchor="middle" fill="#ffffff" font-family="Inter, system-ui, -apple-system, Segoe UI, sans-serif" font-size="22" font-weight="600">Integration Architecture</text>
  <text x="960" y="108" text-anchor="middle" fill="#EFF6FF" font-family="Inter, system-ui, -apple-system, Segoe UI, sans-serif" font-size="12">&lt;Project Name&gt; · Template</text>
  <defs>
    <pattern id="grid-integration-architecture" width="50" height="50" patternUnits="userSpaceOnUse">
      <path d="M 50 0 L 0 0 0 50" fill="none" stroke="#e2e8f0" stroke-width="0.5"/>
    </pattern>
  </defs>
  <rect x="40" y="118" width="1840" height="882" fill="url(#grid-integration-architecture)"/>
  <rect x="40" y="118" width="1840" height="882" fill="#f8fafc" fill-opacity="0.35"/>
  <rect x="760" y="380" width="260" height="100" rx="6" fill="#ffffff" stroke="#334155" stroke-width="1.5"/>
  <text x="890.0" y="435.0" text-anchor="middle" fill="#334155" font-family="Inter, system-ui, -apple-system, Segoe UI, sans-serif" font-size="13">Integration Hub</text>
  <rect x="220" y="260" width="180" height="90" rx="6" fill="none" stroke="#94a3b8" stroke-width="1.5" stroke-dasharray="8 5"/>
  <text x="310.0" y="310.0" text-anchor="middle" fill="#64748b" font-family="Inter, system-ui, -apple-system, Segoe UI, sans-serif" font-size="13">System 1</text>
  <line x1="310" y1="305" x2="760" y2="430" stroke="#cbd5e1" stroke-width="1.5" stroke-dasharray="4 4"/>
  <rect x="1320" y="260" width="180" height="90" rx="6" fill="none" stroke="#94a3b8" stroke-width="1.5" stroke-dasharray="8 5"/>
  <text x="1410.0" y="310.0" text-anchor="middle" fill="#64748b" font-family="Inter, system-ui, -apple-system, Segoe UI, sans-serif" font-size="13">System 2</text>
  <line x1="1410" y1="305" x2="760" y2="430" stroke="#cbd5e1" stroke-width="1.5" stroke-dasharray="4 4"/>
  <rect x="220" y="600" width="180" height="90" rx="6" fill="none" stroke="#94a3b8" stroke-width="1.5" stroke-dasharray="8 5"/>
  <text x="310.0" y="650.0" text-anchor="middle" fill="#64748b" font-family="Inter, system-ui, -apple-system, Segoe UI, sans-serif" font-size="13">System 3</text>
  <line x1="310" y1="645" x2="760" y2="430" stroke="#cbd5e1" stroke-width="1.5" stroke-dasharray="4 4"/>
  <rect x="1320" y="600" width="180" height="90" rx="6" fill="none" stroke="#94a3b8" stroke-width="1.5" stroke-dasharray="8 5"/>
  <text x="1410.0" y="650.0" text-anchor="middle" fill="#64748b" font-family="Inter, system-ui, -apple-system, Segoe UI, sans-serif" font-size="13">System 4</text>
  <line x1="1410" y1="645" x2="760" y2="430" stroke="#cbd5e1" stroke-width="1.5" stroke-dasharray="4 4"/>
  <rect x="1580" y="850" width="280" height="130" rx="6" fill="none" stroke="#64748b" stroke-width="1.5" stroke-dasharray="8 5"/>
  <text x="1720.0" y="920.0" text-anchor="middle" fill="#64748b" font-family="Inter, system-ui, -apple-system, Segoe UI, sans-serif" font-size="13">Legend</text>
  <text x="52" y="1048" fill="#64748b" font-family="Inter, system-ui, -apple-system, Segoe UI, sans-serif" font-size="11">Page 1 of 1 · CONFIDENTIAL — Internal Use Only</text>
  <text x="1868" y="1048" text-anchor="end" fill="#64748b" font-family="Inter, system-ui, -apple-system, Segoe UI, sans-serif" font-size="11">&lt;Project Name&gt; · Version 1.0 · Integration Architecture</text>
</svg>
